<?xml version="1.0" encoding="iso-8859-1"?>
<!-- Generator: Adobe Illustrator 22.0.1, SVG Export Plug-In . SVG Version: 6.00 Build 0)  -->
<svg version="1.1" xmlns="http://www.w3.org/2000/svg" xmlns:xlink="http://www.w3.org/1999/xlink" x="0px" y="0px"
	 viewBox="0 0 64 64" style="enable-background:new 0 0 64 64;" xml:space="preserve">
<g id="_x36_">
	<path style="fill:#90B74B;" d="M29.743,44.769c0,0-7.655,16.879-10.206,18.45c3.337,1.963,7.655-0.393,7.655-0.393l4.122-18.057
		H29.743z"/>
	<path style="fill:#90B74B;" d="M57.614,27.617l4.318-11.973L51.725,18l-2.159-3.337l-6.87,8.636L47.407,9.56h-5.888L35.675,0
		l-5.317,8.735l-5.914-2.708l0.785,15.113L16.985,8.775l-1.57,4.514L8.349,9.953l1.766,6.87c0,0-4.414,2.017-5.199,2.017
		c-0.785,0,10.597,12.4,10.597,12.4l-9.432-1.836l1.286,4.299l-5.299,0.981l4.122,2.159l-1.564,2.689l4.901,0.451l0.575,4.359
		l7.472,1.136l-0.785,6.281l11.973-6.281L32,45.674l9.912,10.01l-0.319-8.621l12.027,2.405L52.5,45.487l7.469-1.383l-3.925-4.122
		l2.04-3.237L47.797,35.67l12.957-4.912L57.614,27.617z M33.681,40.164l18.928,1.567l-21.966,1.155l-20.54-7.174l0,0l18.831,3.439
		L14.374,17.376l0,0l15.572,19.686l5.375-29.197l0,0l-2.027,29.39l23.428-16.462l0,0L33.681,40.164z"/>
	<path style="fill:#AAD15D;" d="M30.321,45.127l11.591,10.557l-0.319-8.621l12.027,2.405L52.5,45.487l7.469-1.383l-3.925-4.122
		l2.04-3.237L47.797,35.67l12.957-4.912l-3.14-3.14l4.318-11.973L51.725,18l-2.159-3.337l-6.87,8.636L47.407,9.56h-5.888L35.675,0
		l-0.354,7.866L30.321,45.127z M35.321,7.866L35.321,7.866l-2.027,29.39l23.428-16.462l0,0l-23.041,19.37l18.928,1.567
		l-21.966,1.155"/>
</g>
<g id="Layer_1">
</g>
</svg>
